PathFileType	4	(X/Y/Z)	/Users/rkoike/Documents/python/sports2d/worker-zone-detection_Sports2D/worker-zone-detection_Sports2D_px_person01.trc
DataRate	CameraRate	NumFrames	NumMarkers	Units	OrigDataRate	OrigDataStartFrame	OrigNumFrames
60	60	12	22	m	60	3411	4549
Frame#	Time	Hip			RHip			RKnee			RAnkle			RBigToe			RSmallToe			RHeel			LHip			LKnee			LAnkle			LBigToe			LSmallToe			LHeel			Neck			Head			Nose			RShoulder			RElbow			RWrist			LShoulder			LElbow			LWrist			
		X1	Y1	Z1	X2	Y2	Z2	X3	Y3	Z3	X4	Y4	Z4	X5	Y5	Z5	X6	Y6	Z6	X7	Y7	Z7	X8	Y8	Z8	X9	Y9	Z9	X10	Y10	Z10	X11	Y11	Z11	X12	Y12	Z12	X13	Y13	Z13	X14	Y14	Z14	X15	Y15	Z15	X16	Y16	Z16	X17	Y17	Z17	X18	Y18	Z18	X19	Y19	Z19	X20	Y20	Z20	X21	Y21	Z21	X22	Y22	Z22
3411	56.85	690.436146272045	638.7495634255685	0.0	724.725240879539	639.9339718950225	0.0	714.3818359060557	756.9413943710199	0.0	704.4409703776397	867.5159257148533	0.0	754.2399545274056	859.505802883762	0.0	758.2541361361557	872.421307650071	0.0	693.9756528683532	889.3275439542829	0.0	655.4821268974509	633.0341513127652	0.0	655.9047421443031	740.6758195385772	0.0	643.5880071322849	839.6012503587426	0.0	656.6915472575497	836.3850496506278	0.0	634.3367697228048	834.1989398984178	0.0	640.1951930964285	861.081430073721	0.0	689.4996140934285	408.150116392225	0.0	706.8393830548855	301.6097635583389	0.0	710.1307984928402	375.35392857040716	0.0	755.2908379088492	465.74488313135043	0.0	772.8136999558844	572.0261768932627	0.0	784.5047106361656	641.1408203891261	0.0	613.7429538405781	443.68844772148776	0.0	617.5820640223301	537.0949920368349	0.0	663.1286404356891	600.4987234497141	0.0
3412	56.86666666666667	690.4361190214249	638.7822209495769	0.0	724.7655456193916	639.8008754022526	0.0	714.3554530631372	756.8920541620155	0.0	704.4100598585692	867.4536955871743	0.0	754.1327765954381	859.3375900112186	0.0	758.2485598532104	872.324351512611	0.0	693.931025107445	889.2681550082357	0.0	655.4072810148018	632.9972407736141	0.0	655.8156143325682	740.7365650130021	0.0	643.5362302929711	839.5502842235124	0.0	656.5567743279919	836.320816084422	0.0	634.3330524266266	834.1950569298378	0.0	640.110766044027	861.1567601172922	0.0	689.5117307182901	408.1297955827668	0.0	706.6414077481361	301.62051418836165	0.0	710.1311869332602	375.19515274917194	0.0	755.3359937092667	465.6303495036131	0.0	772.9666741070619	572.0375121758216	0.0	784.3510039019833	641.0772639960545	0.0	613.7515636473586	443.6725432107782	0.0	617.684637473755	537.1053724173497	0.0	662.6989818206179	600.9170972269089	0.0
3413	56.88333333333333	690.4927564105557	638.693419583359	0.0	724.7975206488987	639.5638663539399	0.0	714.3969337865277	756.7850309591433	0.0	704.3887199282024	867.4223248654855	0.0	754.0456820312762	859.2207864779025	0.0	758.2331407042568	872.2423464966845	0.0	693.9700097892303	889.1960680023138	0.0	655.271884197483	632.8360275559254	0.0	655.7430544211345	740.7431613491336	0.0	643.5017174123044	839.5079342091433	0.0	656.4535988270296	836.2579541424784	0.0	634.3902487417442	834.2017130150427	0.0	640.0510740359196	861.1355267818415	0.0	689.6059471528755	408.0064791709906	0.0	706.4185157373263	301.5856747207199	0.0	710.1482206704304	374.99705912617713	0.0	755.4861687394643	465.3991051381819	0.0	773.0997128925179	571.958663387931	0.0	784.20144985452	640.9723250650505	0.0	613.7710446907363	443.703328805914	0.0	617.7568928588428	537.1403335853784	0.0	662.2239098372581	601.254926429366	0.0
3414	56.9	690.5534430264986	638.5038083924461	0.0	724.7938323683113	639.2715425973543	0.0	714.4616208146349	756.6912084300731	0.0	704.373699856354	867.4757575527013	0.0	754.0018491626493	859.1322241402306	0.0	758.2215695356315	872.1924741947988	0.0	694.0262877310797	889.163637194411	0.0	655.0933624332135	632.5764251871415	0.0	655.6891670342652	740.792734192813	0.0	643.4693912268876	839.5272107574591	0.0	656.3902815559333	836.2662877026133	0.0	634.4678065945361	834.2981358369225	0.0	640.0272441109038	861.0433526656913	0.0	689.7834247183894	407.8064784090217	0.0	706.2193353877452	301.4387001881015	0.0	710.1836733043658	374.805177869687	0.0	755.7154793249184	465.0651963054872	0.0	773.1774035977065	571.8340364874132	0.0	784.0326818017118	640.7829636037444	0.0	613.7651951316922	443.76232891806796	0.0	617.8088621565538	537.1519015335591	0.0	661.7439318510707	601.5674795877377	0.0
3415	56.916666666666664	690.5660030932653	638.2511402746476	0.0	724.7442233872567	639.0217215129412	0.0	714.5033553916645	756.7044020276495	0.0	704.3667231826157	867.618001824812	0.0	754.055705493409	859.0061717174054	0.0	758.2382086661979	872.1925751636126	0.0	694.0354410365986	889.1740338456775	0.0	654.8954787174305	632.2799393193443	0.0	655.5935779177242	740.9583408073653	0.0	643.4145770845507	839.6573091108619	0.0	656.3582537389417	836.3850803292244	0.0	634.4622987229042	834.4671755416439	0.0	640.0305137648701	860.9844006542655	0.0	689.9974526678894	407.58837128391997	0.0	706.0969301267108	301.1626031900564	0.0	710.222057447863	374.6374745483876	0.0	755.9889588393777	464.69255349997644	0.0	773.1912051922567	571.7223542157915	0.0	783.7742026897947	640.5147927723335	0.0	613.7070667763659	443.8078573124824	0.0	617.8831135648206	537.0600909718988	0.0	661.3627476888602	601.8377077569731	0.0
3416	56.93333333333333	690.5394082470538	637.9611079976481	0.0	724.6782950244187	638.8702980184179	0.0	714.4816918429093	756.7831947697576	0.0	704.3840687013674	867.8056510211919	0.0	754.1980672601472	858.8571715630725	0.0	758.2659870425856	872.2201870473367	0.0	694.0057104042851	889.1778003158015	0.0	654.7201497794314	632.0063430640936	0.0	655.4077849046782	741.1802879492516	0.0	643.3372720852655	839.8781723036307	0.0	656.2585859013321	836.6223921720886	0.0	634.2663050579968	834.6375337102463	0.0	640.0554060236615	861.047201637045	0.0	690.1932794665208	407.40913926696817	0.0	706.0560650026434	300.83070655752397	0.0	710.2278437298376	374.52403896648264	0.0	756.3049169912792	464.3567721895296	0.0	773.1728173175068	571.6550801245871	0.0	783.4347301653413	640.2526700321218	0.0	613.61372229459	443.828168053594	0.0	617.9671539571546	536.8746553220069	0.0	661.0976990438572	602.1380534707852	0.0
3417	56.949999999999996	690.5080706767417	637.6505721344022	0.0	724.6268298607562	638.8078838546595	0.0	714.3879821423745	756.8402718606454	0.0	704.4174150243275	867.9836230456162	0.0	754.3545903156079	858.7440402806325	0.0	758.2593987086739	872.2628586573095	0.0	693.9759578389054	889.1425492009388	0.0	654.6061811838961	631.7904626563043	0.0	655.1569951591016	741.348993615166	0.0	643.2614288286242	840.1167088795924	0.0	656.0256509472165	836.9056825549876	0.0	633.8792233037609	834.7292611573947	0.0	640.0962477190973	861.2255331873969	0.0	690.3413574722529	407.2973704970802	0.0	706.0284810231768	300.54069076801886	0.0	710.1821050887071	374.48812083942545	0.0	756.6739601376945	464.10247135233925	0.0	773.1577434856044	571.6315613995811	0.0	783.1143951175351	640.0767707065214	0.0	613.5286214060825	443.8334531771531	0.0	617.9839659456077	536.6681832195228	0.0	660.9077845711532	602.5058080410543	0.0
3418	56.96666666666667	690.4808976138521	637.3521711846512	0.0	724.5896646010972	638.7980633899938	0.0	714.2636871020138	756.8995669336168	0.0	704.4127656732746	868.1085376689482	0.0	754.4820089971504	858.6683559723522	0.0	758.228755699934	872.3362013922297	0.0	693.9585608404096	889.0807936325374	0.0	654.555764965546	631.6515875646215	0.0	654.90601036628	741.4356669106072	0.0	643.2079832360171	840.3205102044607	0.0	655.7327075376619	837.1074583814714	0.0	633.4151547737234	834.6909862523165	0.0	640.1308917123893	861.4563776177349	0.0	690.4317593223398	407.2591609776164	0.0	705.9394788201591	300.31749830687613	0.0	710.1067596618367	374.51018415029665	0.0	757.0791578320634	463.92201033033894	0.0	773.1664458313167	571.6548810934144	0.0	782.8989546452007	639.9945831583659	0.0	613.474329592616	443.8168974232994	0.0	617.8723080889436	536.5036978605432	0.0	660.7767456547593	602.8296061225946	0.0
3419	56.983333333333334	690.4551765580691	637.1157562613664	0.0	724.5625423002843	638.7845117573065	0.0	714.169868337167	756.9933960464608	0.0	704.3319652754359	868.1492936187038	0.0	754.5817378588571	858.5940035888194	0.0	758.2307602109706	872.4165730329553	0.0	693.9611570901233	889.0026822798255	0.0	654.5506903066553	631.5861405041375	0.0	654.6990482596672	741.467751338599	0.0	643.1735155721565	840.4565610825177	0.0	655.4796048089236	837.1656176560364	0.0	633.0117455180073	834.5477250586976	0.0	640.1335077952133	861.6808562221426	0.0	690.4777934026704	407.2865306496805	0.0	705.7898128222826	300.1132584937635	0.0	710.015042880465	374.55661646247256	0.0	757.4901228444088	463.7781848162017	0.0	773.2295526890226	571.7154597437764	0.0	782.8000921035275	639.9449353565881	0.0	613.4363335877665	443.77639432401725	0.0	617.6514271620734	536.4292347604779	0.0	660.6331647319678	603.0529858263482	0.0
3420	57.0	690.4429494279046	636.970681730038	0.0	724.5614346231839	638.692631254176	0.0	714.145979431233	757.0171861331029	0.0	704.2068001392967	868.0928872959938	0.0	754.6221235478101	858.5230368916582	0.0	758.2671931481757	872.4246419757987	0.0	694.017525096546	888.9025114731436	0.0	654.5845622994187	631.5553347188946	0.0	654.5483906039442	741.4405975271209	0.0	643.136605339449	840.4601016420731	0.0	655.2781359394096	837.1215783748552	0.0	632.7697125745309	834.3967459703022	0.0	640.099804451926	861.8334624867719	0.0	690.520229237579	407.3441671572993	0.0	705.6492214742534	299.8927591375739	0.0	709.8728775969618	374.60153110966417	0.0	757.8756079999596	463.64718319748	0.0	773.3897321609886	571.7565568896248	0.0	782.8003948942973	639.8543406398713	0.0	613.3852812591929	443.7580242480813	0.0	617.4036700380877	536.4680033556514	0.0	660.3281905648712	603.2968117474744	0.0
3421	57.016666666666666	690.4547183333543	636.9135185640089	0.0	724.5966653434589	638.4959557378917	0.0	714.2011962012742	756.8592559865596	0.0	704.0967874117223	867.954883465263	0.0	754.5467518064991	858.4752985215092	0.0	758.2811329512016	872.3151550434692	0.0	694.1559066464599	888.8098553080122	0.0	654.6582112936863	631.5211127955994	0.0	654.4458487425628	741.3232996857646	0.0	643.0892341080873	840.2787598082986	0.0	655.124786547862	837.0131093588917	0.0	632.735181736768	834.317501245652	0.0	640.0392835009307	861.8397140501337	0.0	690.5958149647145	407.3814020591376	0.0	705.5947893805454	299.67405240488114	0.0	709.6622625430136	374.60429454988963	0.0	758.1904749085929	463.51706259724114	0.0	773.6496782581352	571.7269212938666	0.0	782.8891341832698	639.6957050239106	0.0	613.30664915847	443.8057381771711	0.0	617.2009502604027	536.5866731933953	0.0	659.8370154467566	603.6233481759987	0.0
3422	57.03333333333333	690.478516320223	636.9323163194177	0.0	724.6487563236092	638.264956183458	0.0	714.3172720264015	756.5645721518054	0.0	704.0335398623807	867.7727921776435	0.0	754.3699963981998	858.4318562744974	0.0	758.2456162686287	872.1278828401495	0.0	694.3567853922737	888.7949152222789	0.0	654.7565807537081	631.4846413776727	0.0	654.3729911932459	741.1124204367915	0.0	643.0537974355542	839.9621508536181	0.0	655.0709364981607	836.8257741953256	0.0	632.8760334556498	834.3221341987539	0.0	639.9581982801726	861.695281796302	0.0	690.7043930594266	407.37441846778324	0.0	705.6682300230473	299.49437255880713	0.0	709.4545873077008	374.51495384200445	0.0	758.405820338786	463.36917207223183	0.0	773.9437693632034	571.6308248656859	0.0	783.0402230762712	639.4816859743177	0.0	613.2105015521968	443.8887468766186	0.0	617.0547047779547	536.7337010349366	0.0	659.3296443545287	603.9048011166501	0.0
